<svg xmlns="http://www.w3.org/2000/svg" version="1.1" xmlns:xlink="http://www.w3.org/1999/xlink" width="1000" height="1000"><g clip-path="url(#SvgjsClipPath1130)"><rect width="1000" height="1000" fill="#3d1556"></rect><g transform="matrix(0.9259259259259259,0,0,0.9259259259259259,0,0)"><svg xmlns="http://www.w3.org/2000/svg" version="1.1" xmlns:xlink="http://www.w3.org/1999/xlink" width="1080" height="1080"><svg width="1080" height="1080" viewBox="0 0 1080 1080" fill="none" xmlns="http://www.w3.org/2000/svg">
<circle cx="540" cy="540" r="540" fill="#3D1556"></circle>
<path d="M555.449 728L618.87 588.104L669.05 482.136L613.295 572.766L546.156 353.859H683.221C786.6 353.859 870 437.518 870 540.93C870 644.341 785.903 728 682.756 728H555.449ZM528.268 728L429.303 546.274L377.033 631.56L424.192 527.451L501.32 352L210 352.465V728H528.268Z" fill="#FDFBFE"></path>
</svg></svg></g></g><defs><clipPath id="SvgjsClipPath1130"><rect width="1000" height="1000" x="0" y="0" rx="500" ry="500"></rect></clipPath></defs></svg>