<svg xmlns="http://www.w3.org/2000/svg" viewBox="0 0 127.7 48.15"><path d="M0 0v11.44l1.38.18c3.29.41 6.1.74 8.85 1h.14v22.8h-.13c-2.66.28-5.56.63-8.85 1L0 36.7v11.45l.89-.24a224.05 224.05 0 0 1 29.26-5.58l.62-.08v-8.78l-1.68.1c-2 .13-4 .26-5.85.41h-.56c1.36-.94 2.89-2 4.45-3 2.9-2 5.12-3.36 6.79-4.31l.1-.06.08.09c1.75 1.89 3.54 3.72 5.28 5.49l.85.86h-.32c-1 0-1.83.1-2.71.16l-3.53.22v8.45l.79-.09a251 251 0 0 1 27.34-1.66V32.5c-2.44 0-4.17 0-6.51.09h-.86c-.85 0-2 0-2.82.06h-.06l-.05-.05c-3.19-3.16-6.36-6.43-9.71-10l-.14-.15.18-.09c1.28-.68 10.95-5.93 12.76-6.93h1.5l5.72.07V8a247.45 247.45 0 0 1-27.36-1.67l-.79-.09v8.33l6.86.36-.52.26C35.51 17.42 26.76 22.68 19.81 27V14.06l3.35.07 1.11.09 4.81.37 1.69.1V5.9l-.62-.08A223.8 223.8 0 0 1 .89.24L0 0zm127.7 0v48.15l-.89-.24c-19.08-5.06-39.94-7.52-61.29-7.75v-7.65h1.76c1.68 0 3.57 0 4.72.06l3 .07V15.43l-3 .07c-1.16 0-3 .05-4.72.06h-1.77V8a257.43 257.43 0 0 0 54.94-6.18c2.18-.5 4.32-1 6.35-1.57l.9-.25z"/>
</svg>