<svg xmlns="http://www.w3.org/2000/svg" viewBox="0 0 32 32">
<path d="M12.09 16.5H9.44v3H12a3.13 3.13 0 0 0 .68-.07 1.61 1.61 0 0 0 .57-.23 1.17 1.17 0 0 0 .4-.44 1.53 1.53 0 0 0 .15-.72 1.45 1.45 0 0 0-.48-1.22 2.06 2.06 0 0 0-1.23-.32zM13 14.52a1.16 1.16 0 0 0 .42-1 1.32 1.32 0 0 0-.14-.64 1 1 0 0 0-.38-.39 1.52 1.52 0 0 0-.54-.19 3.28 3.28 0 0 0-.63-.05H9.44v2.59h2.46a1.76 1.76 0 0 0 1.1-.32zM21 14.85a1.89 1.89 0 0 0-.88.18 1.77 1.77 0 0 0-.56.44 1.58 1.58 0 0 0-.3.56 2.51 2.51 0 0 0-.1.53h3.58a2.14 2.14 0 0 0-.51-1.27 1.65 1.65 0 0 0-1.23-.44z"/>
<path d="M16 0a16 16 0 1 0 16 16A16 16 0 0 0 16 0zm2.75 11.1h4.49v1.1h-4.49zm-2.8 8.57a2.82 2.82 0 0 1-.88 1 3.85 3.85 0 0 1-1.26.57 5.62 5.62 0 0 1-1.45.19H7V10.36h5.22a6.81 6.81 0 0 1 1.44.14 3.15 3.15 0 0 1 1.12.46 2.14 2.14 0 0 1 .72.84 3 3 0 0 1 .25 1.3 2.43 2.43 0 0 1-.38 1.4 2.75 2.75 0 0 1-1.13.91 2.64 2.64 0 0 1 1.52 1 3.41 3.41 0 0 1 .18 3.23zm3.8-.16a2.24 2.24 0 0 0 2.57.15 1.42 1.42 0 0 0 .59-.71h1.94A3.68 3.68 0 0 1 23.42 21a4.16 4.16 0 0 1-2.32.62 4.62 4.62 0 0 1-1.71-.3 3.64 3.64 0 0 1-1.29-.86 3.94 3.94 0 0 1-.81-1.34 4.9 4.9 0 0 1-.29-1.69 4.71 4.71 0 0 1 .3-1.68 3.89 3.89 0 0 1 2.14-2.24 4.17 4.17 0 0 1 1.67-.33 3.8 3.8 0 0 1 1.78.4 3.55 3.55 0 0 1 1.25 1.06 4.35 4.35 0 0 1 .7 1.52A5.68 5.68 0 0 1 25 18h-5.8a2.24 2.24 0 0 0 .55 1.51z"/>
</svg>