<svg xmlns="http://www.w3.org/2000/svg" viewBox="0 0 32.81 32">
<path d="M16.4 0a16.41 16.41 0 0 0-5.18 32c.82.15 1.12-.36 1.12-.79v-2.79c-4.56 1-5.53-2.2-5.53-2.2A4.34 4.34 0 0 0 5 23.79c-1.49-1 .11-1 .11-1a3.45 3.45 0 0 1 2.51 1.69 3.49 3.49 0 0 0 4.77 1.36 3.51 3.51 0 0 1 1-2.19c-3.64-.41-7.47-1.82-7.47-8.11a6.34 6.34 0 0 1 1.69-4.4 5.9 5.9 0 0 1 .18-4.34s1.38-.44 4.51 1.68a15.55 15.55 0 0 1 8.21 0C23.65 6.36 25 6.8 25 6.8a5.89 5.89 0 0 1 .16 4.34 6.33 6.33 0 0 1 1.69 4.4c0 6.3-3.84 7.69-7.49 8.1a3.92 3.92 0 0 1 1.11 3v4.5c0 .5.3.95 1.13.79A16.41 16.41 0 0 0 16.4 0z" /></svg>