<svg xmlns="http://www.w3.org/2000/svg" viewBox="0 0 31.4 32">
<path d="M27.68 9.66a12.88 12.88 0 0 0-4.53-2.94c1-2.83 4.37-3.86 4.37-3.86s-8-4.13-16.73-2.48A13.52 13.52 0 0 0 3 5a12.2 12.2 0 0 0 1.31 17.34c.8.68 2.58 1.74 2.61 1.8C5.76 27.1 2 27.92 2 27.92a31.11 31.11 0 0 0 11.57 3.89 24.34 24.34 0 0 0 5.56.07 14.13 14.13 0 0 0 8.45-4.16 12.7 12.7 0 0 0 .1-18.06zm-2.27 16.08a11.85 11.85 0 0 1-6.85 3.17 21.69 21.69 0 0 1-4.74 0 22.54 22.54 0 0 1-5.63-1.54 8.37 8.37 0 0 0 2-2.86 2.2 2.2 0 0 0-.07-1.74A9.33 9.33 0 0 1 12 12a9.68 9.68 0 0 1 13.54.08 9.76 9.76 0 0 1-.13 13.66z" fill="#231f20"/></svg>